<?xml version="1.0" encoding="utf-8"?>
<!-- Generator: Adobe Illustrator 23.0.0, SVG Export Plug-In . SVG Version: 6.00 Build 0)  -->
<svg version="1.1" id="图层_1" xmlns="http://www.w3.org/2000/svg" xmlns:xlink="http://www.w3.org/1999/xlink" x="0px" y="0px"
	 viewBox="0 0 180 38" style="enable-background:new 0 0 180 38;" xml:space="preserve">
<style type="text/css">
	.st0{display:none;fill:#88A80D;stroke:#FFFFFF;stroke-width:22.31;stroke-miterlimit:10;}
	.st1{display:none;fill:#F7931E;}
	.st2{fill:#22D0FF;}
	.st3{fill:#257DFF;}
	.st4{fill:#333333;}
	.st5{font-family:'NSimSun';}
	.st6{font-size:22px;}
</style>
<g>
	<path class="st0" d="M121.1-53.2C97.6-38.8,82-13,82,16.5s15.6,55.3,39.1,69.7c32-7.1,55.9-35.6,55.9-69.7S153.1-46.1,121.1-53.2z"
		/>
	<path class="st1" d="M78.8,16.5c0-31.4,16.7-59,41.7-74.3c-5.3-1.2-10.8-1.8-16.4-1.8c-42,0-76.1,34.1-76.1,76.1
		s34.1,76.1,76.1,76.1c5.6,0,11.1-0.6,16.4-1.8C95.5,75.5,78.8,47.9,78.8,16.5z"/>
</g>
<path class="st2" d="M26.6,5.5c-4.4,2.7-7.3,7.5-7.3,13s2.9,10.3,7.3,13c6-1.3,10.4-6.6,10.4-13S32.5,6.8,26.6,5.5z"/>
<path class="st3" d="M17.6,18.5c0-6.6,3.5-12.3,8.7-15.5c-1.1-0.2-2.2-0.4-3.4-0.4C14.1,2.7,7,9.7,7,18.5s7.1,15.8,15.8,15.8
	c1.2,0,2.3-0.1,3.4-0.4C21.1,30.8,17.6,25.1,17.6,18.5z"/>
<text transform="matrix(1 0 0 1 40.8696 26.8262)" class="st4 st5 st6">繁星CMS信息科技</text>
</svg>
