<?xml version="1.0" encoding="utf-8"?>
<!-- Generator: Adobe Illustrator 23.0.0, SVG Export Plug-In . SVG Version: 6.00 Build 0)  -->
<svg version="1.1" id="图层_1" xmlns="http://www.w3.org/2000/svg" xmlns:xlink="http://www.w3.org/1999/xlink" x="0px" y="0px"
	 viewBox="0 0 1200 600" style="enable-background:new 0 0 1200 600;" xml:space="preserve">
<style type="text/css">
	.st0{display:none;fill:#E6E6E6;}
	.st1{fill:#333333;}
	.st2{font-family:'AdobeSongStd-Light-GBpc-EUC-H';}
	.st3{font-size:18px;}
	.st4{display:none;fill:#5B71E9;}
	.st5{fill:#00BF7B;stroke:#FFFFFF;stroke-width:5;stroke-miterlimit:10;}
	.st6{fill:#FFFFFF;}
	.st7{opacity:0.8;fill:#FFFFFF;}
	.st8{fill:#00BF7B;}
	.st9{font-size:14px;}
	.st10{fill:#8C74FF;stroke:#FFFFFF;stroke-width:5;stroke-miterlimit:10;}
	.st11{fill:#FFCB47;stroke:#FFFFFF;stroke-width:5;stroke-miterlimit:10;}
	.st12{fill:#479AFF;stroke:#FFFFFF;stroke-width:5;stroke-miterlimit:10;}
	.st13{fill:#58E3B9;stroke:#FFFFFF;stroke-width:5;stroke-miterlimit:10;}
	.st14{fill:#5B71E9;stroke:#FFFFFF;stroke-width:5;stroke-miterlimit:10;}
	.st15{fill:#5B71E9;}
	.st16{fill:#58E3B9;}
	.st17{fill:#479AFF;}
	.st18{fill:#FFCB47;}
	.st19{fill:#8C74FF;}
	.st20{fill:#E6F3FF;}
	.st21{fill:#22D0FF;}
	.st22{fill:#148AF4;}
	.st23{fill:#B8DDFF;}
	.st24{opacity:0.5;fill:#FFFFFF;}
	.st25{fill:none;stroke:#479AFF;stroke-width:3;stroke-linecap:round;stroke-miterlimit:10;}
	.st26{fill:none;stroke:#479AFF;stroke-width:3;stroke-miterlimit:10;}
	.st27{fill:none;stroke:#58E3B9;stroke-width:2;stroke-linecap:round;stroke-miterlimit:10;}
	.st28{fill:none;stroke:#FFCB47;stroke-width:3;stroke-miterlimit:10;}
	.st29{fill:#FFCB47;stroke:#FFCB47;stroke-width:3;stroke-linecap:round;stroke-linejoin:round;stroke-miterlimit:10;}
	.st30{fill:none;stroke:#FFCB47;stroke-width:3;stroke-linecap:round;stroke-linejoin:round;stroke-miterlimit:10;}
	.st31{fill:none;stroke:#333333;stroke-width:3;stroke-miterlimit:10;}
	.st32{fill:#333333;stroke:#333333;stroke-width:3;stroke-linecap:round;stroke-miterlimit:10;}
	.st33{fill:#8C74FF;stroke:#333333;stroke-width:3;stroke-miterlimit:10;}
	.st34{fill:#FFFFFF;stroke:#333333;stroke-width:3;stroke-miterlimit:10;}
	.st35{fill:none;stroke:#FFCB47;stroke-width:3;stroke-linecap:round;stroke-miterlimit:10;}
	.st36{fill:none;stroke:#FFFFFF;stroke-width:3;stroke-linecap:round;stroke-miterlimit:10;}
	.st37{fill:#8C74FF;stroke:#8C74FF;stroke-width:3;stroke-miterlimit:10;}
	.st38{fill:none;stroke:#333333;stroke-width:3;stroke-linecap:round;stroke-miterlimit:10;}
	.st39{fill:#58E3B9;stroke:#58E3B9;stroke-width:3;stroke-linecap:round;stroke-linejoin:round;stroke-miterlimit:10;}
	.st40{fill:#479AFF;stroke:#479AFF;stroke-width:5;stroke-linecap:square;stroke-miterlimit:10;}
	.st41{fill:#58E3B9;stroke:#58E3B9;stroke-width:5;stroke-linecap:square;stroke-miterlimit:10;}
	.st42{fill:none;stroke:#58E3B9;stroke-width:3;stroke-linecap:round;stroke-linejoin:round;stroke-miterlimit:10;}
	
		.st43{fill:none;stroke:#CCCCCC;stroke-width:3;stroke-linecap:round;stroke-linejoin:round;stroke-miterlimit:10;stroke-dasharray:12;}
	.st44{fill:#999999;}
	.st45{font-size:12px;}
	.st46{fill:none;stroke:#CCCCCC;stroke-width:3;stroke-linecap:round;stroke-linejoin:round;}
	.st47{fill:none;stroke:#CCCCCC;stroke-width:3;stroke-linecap:round;stroke-linejoin:round;stroke-dasharray:12.5714,12.5714;}
	.st48{fill:none;stroke:#CCCCCC;stroke-width:3;stroke-linecap:round;stroke-linejoin:round;stroke-dasharray:12.2286,12.2286;}
	.st49{fill:#CCCCCC;}
	.st50{fill:none;stroke:#CCCCCC;stroke-width:3;stroke-miterlimit:10;stroke-dasharray:12,12;}
	.st51{fill:none;stroke:#CCCCCC;stroke-width:3;stroke-linecap:round;stroke-linejoin:round;stroke-dasharray:12,12;}
	.st52{fill:none;stroke:#CCCCCC;stroke-width:3;stroke-miterlimit:10;stroke-dasharray:12;}
</style>
<circle class="st0" cx="84" cy="300" r="47"/>
<text transform="matrix(1 0 0 1 33.1738 401.4346)" class="st1 st2 st3">洽谈对接需求</text>
<circle class="st0" cx="216" cy="303" r="47"/>
<text transform="matrix(1 0 0 1 182.3042 401.1309)" class="st1 st2 st3">需求整理</text>
<circle class="st0" cx="493" cy="300" r="47"/>
<text transform="matrix(1 0 0 1 450.3042 398.1309)" class="st1 st2 st3">原型图绘制</text>
<circle class="st0" cx="642" cy="302" r="47"/>
<text transform="matrix(1 0 0 1 607.3042 400.1309)" class="st1 st2 st3">UI/UE设计</text>
<circle class="st0" cx="798" cy="303" r="47"/>
<text transform="matrix(1 0 0 1 747.3042 400.1309)" class="st1 st2 st3">程序编码开发</text>
<circle class="st0" cx="972" cy="300" r="47"/>
<text transform="matrix(1 0 0 1 958.3042 398.1309)" class="st1 st2 st3">测试</text>
<circle class="st0" cx="1117" cy="301" r="47"/>
<text transform="matrix(1 0 0 1 1069.3042 401.1309)" class="st1 st2 st3">项目验收上线</text>
<circle class="st0" cx="351" cy="300" r="47"/>
<text transform="matrix(1 0 0 1 308.3042 398.1309)" class="st1 st2 st3">立项研讨会</text>
<polyline class="st4" points="156,123 129,90 129,157 "/>
<rect x="988.5" y="5.5" class="st5" width="209.5" height="72"/>
<text transform="matrix(1 0 0 1 1070.522 49.1304)" class="st6 st2 st3"> 验收上线阶段</text>
<circle class="st7" cx="1059.6" cy="43.3" r="9.5"/>
<text transform="matrix(1 0 0 1 1056.3831 47.691)" class="st8 st2 st9">6</text>
<polygon class="st10" points="1007,77.5 797.5,77.5 797.5,5.5 1007,5.5 1039,41.5 "/>
<polygon class="st11" points="842,77.5 458.5,77.5 458.5,5.5 842,5.5 874,41.5 "/>
<polygon class="st12" points="463,76.5 253.5,76.5 253.5,4.5 463,4.5 495,40.5 "/>
<polygon class="st13" points="297,76.5 127.5,76.5 127.5,4.5 297,4.5 329,41 "/>
<g>
	<polygon class="st14" points="130.4,77 3,77 3,5 130.4,5 158,41 	"/>
</g>
<text transform="matrix(0.9257 0 0 1 48 46.1304)" class="st6 st2 st3"> 沟通阶段</text>
<text transform="matrix(1 0 0 1 191.7827 46.5654)" class="st6 st2 st3"> 需求整理阶段</text>
<circle class="st7" cx="35.5" cy="39.5" r="9.5"/>
<text transform="matrix(0.9993 -3.621000e-02 3.621000e-02 0.9993 32.5816 43.6274)" class="st15 st2 st9">1</text>
<g>
	<circle class="st7" cx="180.5" cy="40.5" r="9.5"/>
	<text transform="matrix(1 0 0 1 177.5 44.5)" class="st16 st2 st9">2</text>
</g>
<text transform="matrix(1 0 0 1 360.522 46.1304)" class="st6 st2 st3"> 立项启动阶段</text>
<circle class="st7" cx="349.6" cy="40.3" r="9.5"/>
<text transform="matrix(1 0 0 1 346.3831 44.691)" class="st17 st2 st9">3</text>
<text transform="matrix(1 0 0 1 624.522 46.1304)" class="st6 st2 st3"> 开发实施阶段</text>
<circle class="st7" cx="613.6" cy="40.3" r="9.5"/>
<text transform="matrix(1 0 0 1 610.3831 44.691)" class="st18 st2 st9">4</text>
<text transform="matrix(1 0 0 1 919.522 45.1304)" class="st6 st2 st3"> 测试阶段</text>
<circle class="st7" cx="908.5" cy="39.5" r="9.5"/>
<text transform="matrix(1 -3.240000e-03 3.240000e-03 1 905.473 43.4775)" class="st19 st2 st9">5</text>
<g>
	<circle class="st20" cx="83" cy="330" r="45"/>
	<path class="st21" d="M71.3,335.1c0,9.7,7.9,17.6,17.6,17.6c2.2,0,12.6,1.7,13.4,0.8c0,0-5.9-2.5-5.2-2.9c5.6-2.9,9.4-8.8,9.4-15.6
		c0-9.7-7.9-17.6-17.6-17.6S71.3,325.4,71.3,335.1z"/>
	<path class="st22" d="M101.5,327.5c0,11.6-9.4,21-21,21c-2.6,0-15,2-16,1c0,0,7-3,6.2-3.4c-6.7-3.5-11.2-10.5-11.2-18.6
		c0-11.6,9.4-21,21-21S101.5,315.9,101.5,327.5z"/>
	<circle class="st23" cx="69" cy="327" r="3"/>
	<circle class="st23" cx="81" cy="327" r="3"/>
	<circle class="st23" cx="93" cy="327" r="3"/>
</g>
<g>
	<circle class="st20" cx="215.5" cy="332.5" r="45"/>
	<path class="st16" d="M232.9,358.4h-33.8c-3.4,0-6.1-2.7-6.1-6.1v-37.6c0-3.4,2.7-6.1,6.1-6.1h33.8c3.4,0,6.1,2.7,6.1,6.1v37.6
		C239,355.7,236.3,358.4,232.9,358.4z"/>
	<path class="st24" d="M227.6,326.1H202c-0.8,0-1.5-0.7-1.5-1.5v-0.7c0-0.8,0.7-1.5,1.5-1.5h25.6c0.8,0,1.5,0.7,1.5,1.5v0.7
		C229.1,325.4,228.4,326.1,227.6,326.1z"/>
	<path class="st7" d="M218.9,333.5H202c-0.8,0-1.5-0.7-1.5-1.5v-0.7c0-0.8,0.7-1.5,1.5-1.5h16.9c0.8,0,1.5,0.7,1.5,1.5v0.7
		C220.4,332.9,219.7,333.5,218.9,333.5z"/>
	<path class="st6" d="M228.8,347.2h-9.4c-0.8,0-1.5,0.7-1.5,1.5v0.7c0,0.8,0.7,1.5,1.5,1.5h9.4c0.8,0,1.5-0.7,1.5-1.5v-0.7
		C230.3,347.9,229.6,347.2,228.8,347.2z"/>
</g>
<g>
	<circle class="st20" cx="350.5" cy="329.5" r="45"/>
	<path class="st6" d="M369.4,334h-37.8c-2,0-3.6-1.6-3.6-3.6v-18.8c0-2,1.6-3.6,3.6-3.6h37.8c2,0,3.6,1.6,3.6,3.6v18.8
		C373,332.4,371.4,334,369.4,334z"/>
	<g>
		<g>
			<path class="st25" d="M340.5,338.5c-3.2,0-5.8-2.6-5.8-5.8c0-3.2,2.6-5.8,5.8-5.8"/>
			<path class="st25" d="M329.8,349.5c0-5.9,4.8-10.7,10.7-10.7"/>
		</g>
		<g>
			<circle class="st26" cx="350.5" cy="330.5" r="7"/>
			<path class="st25" d="M337.5,352c0-7.2,5.8-13,13-13s13,5.8,13,13"/>
		</g>
		<g>
			<path class="st25" d="M360.8,338.5c3.2,0,5.8-2.6,5.8-5.8c0-3.2-2.6-5.8-5.8-5.8"/>
			<path class="st25" d="M371.5,349.5c0-3.8-2-7.1-4.9-9"/>
		</g>
	</g>
	<polyline class="st27" points="341.5,319.5 347.5,314.5 351.5,318.5 361.5,313.5 	"/>
</g>
<g>
	<circle class="st20" cx="493" cy="330" r="45"/>
	<path class="st28" d="M509.8,354.5h-34.5c-1.8,0-3.2-1.4-3.2-3.2v-40.5c0-1.8,1.4-3.2,3.2-3.2h34.5c1.8,0,3.2,1.4,3.2,3.2v40.5
		C513,353.1,511.6,354.5,509.8,354.5z"/>
	<polygon class="st29" points="505.2,322.6 491.9,328 479.8,321.4 493.1,315 	"/>
	<line class="st30" x1="479.5" y1="322" x2="479.5" y2="340"/>
	<line class="st30" x1="505.5" y1="323" x2="505.5" y2="341"/>
	<line class="st30" x1="492.5" y1="329" x2="492.5" y2="347"/>
	<line class="st30" x1="479.5" y1="340" x2="492.5" y2="347"/>
	<line class="st30" x1="505.5" y1="341" x2="492.5" y2="347"/>
</g>
<circle class="st20" cx="642" cy="332" r="45"/>
<path class="st18" d="M663.7,345.1h-42.9c-0.6,0-1-0.5-1-1v-29.9c0-0.6,0.5-1,1-1h42.9c0.6,0,1,0.5,1,1v29.9
	C664.7,344.7,664.2,345.1,663.7,345.1z"/>
<g>
	<g>
		<path class="st31" d="M665.9,347.6h-47.4c-0.7,0-1.3-0.6-1.3-1.3v-34.4c0-0.7,0.6-1.3,1.3-1.3h47.4c0.7,0,1.3,0.6,1.3,1.3v34.4
			C667.2,347,666.6,347.6,665.9,347.6z"/>
		<circle class="st31" cx="628.5" cy="321.5" r="3"/>
		<rect x="640.5" y="318.5" class="st31" width="18" height="7"/>
		<rect x="624" y="331.9" class="st1" width="36" height="6.5"/>
		<rect x="640" y="334.1" class="st18" width="20.5" height="2"/>
	</g>
	<line class="st32" x1="625" y1="355" x2="660" y2="355"/>
</g>
<circle class="st20" cx="798.5" cy="333.5" r="45"/>
<g>
	<path class="st33" d="M822.5,347.5h-49v-30c0-1.1,0.9-2,2-2h44.9c1.1,0,2,0.9,2,2V347.5z"/>
	<path class="st34" d="M820.9,353.5h-45.8c-3.1,0-5.6-2.5-5.6-5.6v0c0-0.2,0.1-0.3,0.3-0.3h56.3c0.2,0,0.3,0.2,0.3,0.3l0,0
		C826.5,351,824,353.5,820.9,353.5z"/>
	<g>
		<g>
			<line class="st35" x1="784" y1="321.5" x2="780.5" y2="325.8"/>
			<line class="st35" x1="780.5" y1="325.8" x2="783.1" y2="331"/>
		</g>
		<g>
			<line class="st35" x1="791.7" y1="321.5" x2="795.2" y2="325.8"/>
			<line class="st35" x1="795.2" y1="325.8" x2="792.6" y2="331"/>
		</g>
		<line class="st35" x1="788.3" y1="323.2" x2="787.4" y2="330.1"/>
	</g>
	<line class="st36" x1="804.5" y1="323.5" x2="815.5" y2="323.5"/>
	<line class="st36" x1="804.5" y1="330.5" x2="815.5" y2="330.5"/>
	<line class="st36" x1="779.5" y1="336.5" x2="782.5" y2="336.5"/>
	<line class="st36" x1="786.5" y1="336.5" x2="816.5" y2="336.5"/>
	<line class="st36" x1="779.5" y1="341.5" x2="810.5" y2="341.5"/>
	<line class="st36" x1="814.5" y1="341.5" x2="816.5" y2="341.5"/>
</g>
<circle class="st20" cx="972.5" cy="330.5" r="45"/>
<path class="st37" d="M986.7,352.5h-29c-2.2,0-4-1.8-4-4v-34c0-2.2,1.8-4,4-4h29c2.2,0,4,1.8,4,4v34
	C990.7,350.7,988.9,352.5,986.7,352.5z"/>
<g>
	<line class="st36" x1="959.5" y1="321.2" x2="963" y2="325.6"/>
	<line class="st36" x1="963.4" y1="326" x2="972.2" y2="319"/>
</g>
<g>
	<line class="st38" x1="957.5" y1="335.5" x2="969.2" y2="343"/>
	<line class="st38" x1="969.2" y1="335.5" x2="957.5" y2="343"/>
</g>
<line class="st35" x1="978" y1="323.5" x2="986.5" y2="323.5"/>
<line class="st38" x1="978" y1="339.5" x2="986.5" y2="339.5"/>
<polygon class="st39" points="959.7,308.9 971.6,312.5 984.7,308.9 "/>
<circle class="st16" cx="972.2" cy="305.4" r="4.2"/>
<circle class="st20" cx="972.2" cy="305.4" r="1.3"/>
<circle class="st20" cx="1117" cy="331" r="45"/>
<g>
	<polygon class="st40" points="1137.7,341.8 1117,353.9 1096.3,341.8 1117,329.7 	"/>
	<polygon class="st41" points="1137.7,320.2 1117,332.3 1096.3,320.2 1117,308.1 	"/>
</g>
<path class="st30" d="M650,586.5h-8c-119,0-215.5-96.5-215.5-215.5v0c0-119,96.5-215.5,215.5-215.5h8c119,0,215.5,96.5,215.5,215.5
	v0C865.5,490,769,586.5,650,586.5z"/>
<ellipse class="st42" cx="213" cy="355.5" rx="201.5" ry="133"/>
<path class="st43" d="M193.5,222.5"/>
<text transform="matrix(1 0 0 1 347.3477 145.4346)" class="st44 st2 st45">提供需求并启动项目</text>
<g>
	<g>
		<g>
			<line class="st46" x1="200.5" y1="222.5" x2="200.5" y2="216.5"/>
			<line class="st47" x1="200.5" y1="203.9" x2="200.5" y2="134.8"/>
			<line class="st46" x1="200.5" y1="128.5" x2="200.5" y2="122.5"/>
		</g>
	</g>
	<g>
		<g>
			<line class="st46" x1="200.5" y1="122.5" x2="206.5" y2="122.5"/>
			<line class="st48" x1="218.7" y1="122.5" x2="628.4" y2="122.5"/>
			<line class="st46" x1="634.5" y1="122.5" x2="640.5" y2="122.5"/>
		</g>
	</g>
	<g>
		<g>
			<line class="st46" x1="640.5" y1="122.5" x2="640.5" y2="128.5"/>
			<line class="st46" x1="640.5" y1="138.6" x2="640.5" y2="144.6"/>
			<g>
				<path class="st49" d="M640.5,155.5c-1.9-5.1-5.1-11.5-8.6-15.4l8.6,3.1l8.6-3.1C645.6,144,642.4,150.4,640.5,155.5z"/>
			</g>
		</g>
	</g>
</g>
<g>
	<g>
		<g>
			<path class="st50" d="M855.5,248.5c4.9-20.7,23.6-36,45.7-35.9c25.9,0.1,46.8,21.1,46.7,47"/>
			<g>
				<path class="st49" d="M854.2,259.3c2.6-4.8,6.6-10.7,10.5-14.1l-8.9,1.9l-8.1-4.2C850.6,247.3,853,254,854.2,259.3z"/>
			</g>
		</g>
	</g>
	<g>
		<g>
			<path class="st50" d="M946.6,270.7c-4.9,20.7-23.6,36-45.7,35.9c-25.9-0.1-46.8-21.1-46.7-47"/>
			<g>
				<path class="st49" d="M947.9,259.9c-2.6,4.8-6.6,10.7-10.5,14.1l8.9-1.9l8.1,4.2C951.5,271.9,949.1,265.2,947.9,259.9z"/>
			</g>
		</g>
	</g>
</g>
<text transform="matrix(1 0 0 1 888.4785 327.6523)" class="st44 st2 st45">优化</text>
<text transform="matrix(1 0 0 1 880.4346 201.9565)" class="st44 st2 st45">提交BUG</text>
<line class="st43" x1="492.5" y1="413.5" x2="492.5" y2="469.5"/>
<line class="st43" x1="492.5" y1="469.5" x2="646.5" y2="469.5"/>
<g>
	<g>
		<line class="st51" x1="646.5" y1="469.5" x2="646.5" y2="424.4"/>
		<g>
			<path class="st49" d="M646.5,413.5c1.9,5.1,5.1,11.5,8.6,15.4l-8.6-3.1l-8.6,3.1C641.4,425,644.6,418.6,646.5,413.5z"/>
		</g>
	</g>
</g>
<line class="st43" x1="646.5" y1="469.5" x2="797.5" y2="469.5"/>
<g>
	<g>
		<line class="st51" x1="797.5" y1="469.5" x2="797.5" y2="424.4"/>
		<g>
			<path class="st49" d="M797.5,413.5c1.9,5.1,5.1,11.5,8.6,15.4l-8.6-3.1l-8.6,3.1C792.4,425,795.6,418.6,797.5,413.5z"/>
		</g>
	</g>
</g>
<text transform="matrix(1 0 0 1 544.9565 491.9131)" class="st44 st2 st45">逻辑约束</text>
<line class="st52" x1="640" y1="284" x2="640" y2="236"/>
<line class="st52" x1="640.5" y1="247.5" x2="793.5" y2="247.5"/>
<g>
	<g>
		<line class="st50" x1="793.5" y1="247.5" x2="793.5" y2="272.6"/>
		<g>
			<path class="st49" d="M793.5,283.5c-1.9-5.1-5.1-11.5-8.6-15.4l8.6,3.1l8.6-3.1C798.6,272,795.4,278.4,793.5,283.5z"/>
		</g>
	</g>
</g>
<text transform="matrix(1 0 0 1 694.5215 236.1738)" class="st44 st2 st45">视觉约束</text>
</svg>
