<?xml version="1.0" standalone="no"?><!DOCTYPE svg PUBLIC "-//W3C//DTD SVG 1.1//EN" "http://www.w3.org/Graphics/SVG/1.1/DTD/svg11.dtd"><svg t="1661272145376" class="icon" viewBox="0 0 1024 1024" version="1.1" xmlns="http://www.w3.org/2000/svg" p-id="20376" width="88" height="88" xmlns:xlink="http://www.w3.org/1999/xlink"><defs><style type="text/css">@font-face { font-family: feedback-iconfont; src: url("//at.alicdn.com/t/font_1031158_u69w8yhxdu.woff2?t=1630033759944") format("woff2"), url("//at.alicdn.com/t/font_1031158_u69w8yhxdu.woff?t=1630033759944") format("woff"), url("//at.alicdn.com/t/font_1031158_u69w8yhxdu.ttf?t=1630033759944") format("truetype"); }
</style></defs><path d="M61.44 225.28a122.88 122.88 0 0 1 122.88-122.88h195.13344a81.92 81.92 0 0 1 73.27744 45.28128L512 266.24h327.68a122.88 122.88 0 0 1 122.88 122.88v409.6a122.88 122.88 0 0 1-122.88 122.88H184.32a122.88 122.88 0 0 1-122.88-122.88V225.28z" fill="#989999" p-id="20377" data-spm-anchor-id="a313x.7781069.0.i38" class="selected"></path><path d="M215.04 430.08h593.92a30.72 30.72 0 0 1 0 61.44h-593.92a30.72 30.72 0 0 1 0-61.44z" fill="#FFFFFF" p-id="20378"></path></svg>